<svg version="1.1" id="Layer_1" xmlns="http://www.w3.org/2000/svg" xmlns:xlink="http://www.w3.org/1999/xlink" x="0px" y="0px"
	 viewBox="0 0 722.9 336.3" style="enable-background:new 0 0 722.9 336.3;" xml:space="preserve">
<path var:color.fill="#000"  class="st0" d="M162.2,132.4c-8.5-9.4-18.3-16.7-29.5-21.9c-11.2-5.2-23-7.8-35.6-7.8c-8.1,0-16.2,0.9-24.3,2.7
	c-8.1,1.8-15.7,4.7-23.1,8.6V17.3H0v221.8c0,14.1,2.3,26.3,7,36.8c4.7,10.4,11,19.1,18.9,25.9c7.9,6.8,17.2,11.9,27.8,15.2
	c10.6,3.3,21.9,5,33.8,5c14.2,0,27.5-2.5,39.9-7.5c12.4-5,23.2-12.3,32.4-21.7c9.2-9.5,16.5-21.1,21.7-34.8
	c5.3-13.7,7.9-29.4,7.9-47c0-16.2-2.4-31-7.3-44.4C177.3,153.2,170.6,141.8,162.2,132.4z M136,235.5c-2.5,8.1-6,15-10.4,20.7
	c-4.4,5.8-9.6,10.2-15.7,13.3c-6.1,3.1-12.7,4.7-19.7,4.7c-6.1,0-11.6-0.5-16.6-1.6c-4.9-1.1-9.2-3-12.7-5.7
	c-3.5-2.7-6.3-6.4-8.2-11c-2-4.6-2.9-10.4-2.9-17.5v-73.1c5.7-4.9,12-8.8,18.9-11.7c6.9-2.9,13.3-4.4,19.1-4.4
	c7.3,0,14.1,1.2,20.5,3.5c6.4,2.3,11.9,5.9,16.5,10.8c4.7,4.9,8.3,11,11,18.5c2.6,7.4,4,16.3,4,26.6
	C139.7,218.5,138.5,227.5,136,235.5z M345.3,17.9c3.7,0.4,6.4,1,8.3,1.8v47.5c-0.8-0.3-1.6-0.6-2.4-0.9c-4.3-1.5-9.1-2.2-14.4-2.2
	c-7.2,0-13.6,1.3-19.2,4c-5.6,2.6-10.4,6.4-14.3,11.2c-3.9,4.8-6.9,10.6-8.9,17.5c-2,6.8-3,14.4-3,22.6v3.5h54.1
	c0,0-0.8,2.5-1.4,11.8c-0.3,4.7-0.5,11.5-0.5,20.4v17.9h-52.2v146.1h-49.8V172.8h-28.7v-50h28.7c0.3-14.6,2.3-27.7,6.2-40.1
	c4.1-13.3,10.2-24.8,18.2-34.5c8-9.7,17.8-17.2,29.5-22.6c11.7-5.4,25.2-8.1,40.3-8.1C338.4,17.3,341.6,17.5,345.3,17.9z
	 M489.4,145.9c0.9,1.6,1.4,3.3,1.4,5.1c0,1.7-0.4,3.2-1.3,4.7c-0.9,1.5-2,2.7-3.5,3.8c-1.5,1.1-3.3,1.9-5.3,2.6
	c-2,0.6-4.2,0.9-6.6,0.9c-1,0-2.1,0-3.2,0c-1.1,0-2.3-0.1-3.5-0.4v-24.7c0.4,0,0.8-0.1,1.3-0.1c0.5,0,0.9,0,1.4,0
	c3.3,0,6.3,0.4,8.9,1.1c2.6,0.7,4.7,1.7,6.5,2.9C487.2,142.9,488.5,144.3,489.4,145.9z M648.9,157.2c1.5,4.1,2.3,8.6,2.3,13.7
	c0,4.6-0.8,8.7-2.3,12.2c-1.5,3.5-3.6,6.4-6.2,8.8c-2.6,2.4-5.7,4.1-9.2,5.3c-3.5,1.2-7.2,1.8-11.1,1.8c-2.2,0-4.3-0.1-6.3-0.4
	v-60.6c0.4,0,0.7-0.1,1.1-0.1c0.4,0,0.7,0,1.1,0c5.1,0,9.7,0.8,13.8,2.3c4.1,1.5,7.5,3.7,10.4,6.6
	C645.2,149.6,647.4,153.1,648.9,157.2z M554.8,0C462,0,386.7,75.3,386.7,168.1S462,336.3,554.8,336.3S722.9,261,722.9,168.1
	S647.7,0,554.8,0z M516.4,214c-1.1-0.2-2.2-0.3-3.3-0.4c-1.1-0.1-2.2-0.1-3.3-0.1c-1.7,0-3.7,0-5.9,0.1c-2.2,0.1-4.7,0.2-7.6,0.4
	l-15.5-36.2c-1.4,0.2-2.7,0.4-4.2,0.5c-1.4,0.1-2.9,0.2-4.5,0.2c-0.8,0-1.6,0-2.4-0.1c-0.8,0-1.7-0.1-2.5-0.2v35.2h-17.3v-90.8
	c2.8-0.4,5.7-0.7,8.6-0.9c2.9-0.2,6.3-0.3,10-0.3c6.2,0,11.8,0.7,16.7,2.1c4.9,1.4,9,3.4,12.4,6c3.3,2.6,5.9,5.6,7.7,9.2
	c1.8,3.6,2.6,7.5,2.6,11.8c0,4.4-1,8.4-3,12.1c-2,3.7-4.9,6.8-8.8,9.4l14.1,30.8c1.4,3.2,2.6,5.6,3.6,7.3c1,1.7,1.8,2.8,2.6,3.4
	L516.4,214z M581.8,213.5h-52.2v-90.8c1.2,0.1,2.6,0.2,4,0.2c1.5,0.1,3,0.1,4.5,0.1c1.6,0,3.1,0,4.7,0.1c1.6,0,3.1,0,4.5,0
	c4.3,0,9.3,0,14.9-0.1c5.6-0.1,11.5-0.2,17.9-0.4c-0.1,1.1-0.2,2.4-0.3,3.9c-0.1,1.5-0.2,3.1-0.2,4.6c-0.1,1.5-0.1,3-0.1,4.3
	c0,1.3,0,2.4,0,3.1c0,0.6,0,1.2,0.1,1.6l-0.1,0.2c-0.6-0.2-1.2-0.3-1.8-0.5s-1.3-0.2-2-0.3c-0.7-0.1-1.6-0.1-2.6-0.2
	c-1,0-2.2-0.1-3.6-0.1h-22.5v17.3h19.8c2.6,0,4.6,0,5.9-0.1c1.4,0,2.4-0.2,3.1-0.3l0.2,16.8c-1.3-0.1-2.7-0.2-4.1-0.3
	c-1.4,0-2.9-0.1-4.3-0.1h-20.6v24.4h28.8c1.8,0,3.1-0.1,3.9-0.2c0.8-0.2,1.5-0.3,1.9-0.6l0.3,0.1V213.5z M664.6,188
	c-2.6,6-6.3,10.9-10.9,15c-4.6,4-10,7.1-16.2,9.1c-6.2,2.1-12.8,3.1-19.8,3.1c-1.4,0-2.9,0-4.5-0.1c-1.6-0.1-3.2-0.2-4.9-0.3
	c-1.7-0.1-3.3-0.3-5-0.5c-1.7-0.2-3.2-0.5-4.7-0.7v-90.9c3-0.4,6.1-0.6,9.1-0.8c3-0.2,6-0.3,8.8-0.3c8.4,0,15.9,1.1,22.3,3.4
	c6.5,2.3,11.9,5.4,16.3,9.5c4.4,4.1,7.7,8.9,10,14.5c2.3,5.6,3.4,11.8,3.4,18.5C668.6,175.2,667.3,182.1,664.6,188z"/>
</svg>
