<svg version="1.1" id="Layer_1" xmlns="http://www.w3.org/2000/svg" xmlns:xlink="http://www.w3.org/1999/xlink" x="0px" y="0px"
	 viewBox="0 0 446.9 446.9" style="enable-background:new 0 0 446.9 446.9;" xml:space="preserve">
<path var:color.fill="#000"  class="st0" d="M198.1,175.8c1.6,4.6,2.4,10.1,2.4,16.4c0,6.1-0.8,11.7-2.3,16.6c-1.5,5-3.7,9.2-6.4,12.8
	c-2.7,3.6-6,6.3-9.7,8.2c-3.8,1.9-7.8,2.9-12.2,2.9c-3.8,0-7.2-0.3-10.2-1c-3.1-0.7-5.7-1.8-7.8-3.5c-2.2-1.7-3.9-3.9-5.1-6.8
	c-1.2-2.8-1.8-6.4-1.8-10.8v-45.2c3.5-3,7.4-5.4,11.7-7.2c4.3-1.8,8.2-2.7,11.8-2.7c4.5,0,8.7,0.7,12.7,2.1
	c3.9,1.4,7.3,3.6,10.2,6.7C194.2,167.4,196.5,171.2,198.1,175.8z M149.6,299.4c-1.7-1.2-3.9-2.2-6.5-2.9c-2.6-0.7-5.5-1.1-8.9-1.1
	c-0.5,0-1,0-1.4,0c-0.5,0-0.9,0-1.3,0.1v24.7c1.2,0.2,2.4,0.4,3.5,0.4c1.1,0,2.2,0,3.2,0c2.4,0,4.5-0.3,6.6-0.9
	c2-0.6,3.8-1.5,5.3-2.6c1.5-1.1,2.7-2.4,3.5-3.8c0.9-1.4,1.3-3,1.3-4.7c0-1.8-0.5-3.5-1.4-5.1C152.7,302,151.3,300.6,149.6,299.4z
	 M446.9,223.5c0,123.4-100,223.5-223.5,223.5S0,346.9,0,223.5S100,0,223.5,0S446.9,100,446.9,223.5z M245.7,170.1h17.7v90.3h30.8
	v-90.3h32.3v-11c0-5.5,0.1-9.7,0.3-12.6c0.4-5.7,0.9-7.3,0.9-7.3h-33.5V137c0-5.1,0.6-9.8,1.9-14c1.3-4.2,3.1-7.8,5.5-10.8
	c2.4-3,5.4-5.3,8.8-6.9c3.5-1.6,7.4-2.4,11.9-2.4c3.3,0,6.2,0.5,8.9,1.4c0.5,0.2,1,0.4,1.5,0.6V75.5c-1.2-0.5-2.9-0.9-5.1-1.1
	c-2.3-0.3-4.2-0.4-5.9-0.4c-9.4,0-17.7,1.7-24.9,5c-7.2,3.3-13.3,8-18.3,14c-4.9,6-8.7,13.1-11.2,21.3c-2.4,7.7-3.6,15.8-3.8,24.8
	h-17.8V170.1z M180.9,371.4c-0.8-0.6-1.7-1.8-2.6-3.4c-0.9-1.7-2.2-4.1-3.6-7.3l-14.1-30.8c3.8-2.6,6.8-5.7,8.8-9.4
	c2-3.7,3-7.7,3-12.1c0-4.3-0.9-8.2-2.6-11.8c-1.8-3.6-4.3-6.6-7.7-9.2c-3.4-2.6-7.5-4.6-12.4-6c-4.9-1.4-10.5-2.1-16.7-2.1
	c-3.8,0-7.1,0.1-10,0.3c-2.9,0.2-5.8,0.5-8.6,0.9v90.8h17.3V336c0.8,0.1,1.6,0.2,2.5,0.2c0.8,0,1.6,0.1,2.4,0.1c1.5,0,3-0.1,4.5-0.2
	c1.4-0.1,2.8-0.3,4.2-0.5l15.5,36.2c2.9-0.2,5.4-0.4,7.6-0.4c2.2-0.1,4.2-0.1,5.9-0.1c1.1,0,2.2,0,3.3,0.1c1.1,0.1,2.2,0.2,3.3,0.4
	L180.9,371.4z M193,257.7c7.7-3.1,14.3-7.6,20-13.4c5.7-5.9,10.2-13,13.4-21.5c3.3-8.5,4.9-18.2,4.9-29.1c0-10-1.5-19.2-4.5-27.4
	c-3-8.2-7.1-15.3-12.4-21.1c-5.2-5.8-11.3-10.3-18.2-13.6c-6.9-3.2-14.2-4.8-22-4.8c-5,0-10,0.6-15,1.7c-5,1.1-9.7,2.9-14.2,5.3V74
	h-30.8v137.1c0,8.7,1.4,16.3,4.3,22.7c2.9,6.4,6.8,11.8,11.7,16c4.9,4.2,10.6,7.4,17.2,9.4c6.6,2,13.5,3.1,20.9,3.1
	C177.1,262.3,185.3,260.8,193,257.7z M245.9,354.2l-0.3-0.1c-0.5,0.2-1.1,0.4-1.9,0.6c-0.8,0.2-2.1,0.2-3.9,0.2H211v-24.4h20.6
	c1.4,0,2.9,0,4.3,0.1c1.4,0,2.8,0.1,4.1,0.3l-0.2-16.8c-0.7,0.2-1.7,0.3-3.1,0.3c-1.4,0-3.3,0.1-5.9,0.1H211v-17.3h22.5
	c1.4,0,2.6,0,3.6,0.1c1,0,1.9,0.1,2.6,0.2c0.7,0.1,1.4,0.2,2,0.3c0.6,0.1,1.2,0.3,1.8,0.5l0.1-0.2c-0.1-0.5-0.1-1-0.1-1.6
	c0-0.7,0-1.8,0-3.1c0-1.3,0.1-2.8,0.1-4.3c0.1-1.5,0.1-3.1,0.2-4.6c0.1-1.5,0.2-2.9,0.3-3.9c-6.4,0.2-12.4,0.4-17.9,0.4
	c-5.6,0.1-10.5,0.1-14.9,0.1c-1.4,0-3,0-4.5,0c-1.6,0-3.1,0-4.7-0.1c-1.6,0-3.1-0.1-4.5-0.1c-1.5-0.1-2.8-0.1-4-0.2v90.8h52.2V354.2
	z M332.7,325.1c0-6.7-1.1-12.9-3.4-18.5c-2.3-5.6-5.6-10.5-10-14.5c-4.4-4.1-9.8-7.2-16.3-9.5c-6.5-2.3-13.9-3.4-22.3-3.4
	c-2.9,0-5.8,0.1-8.8,0.3c-3,0.2-6.1,0.5-9.1,0.8v90.9c1.5,0.3,3.1,0.5,4.7,0.7c1.7,0.2,3.3,0.4,5,0.5c1.7,0.1,3.3,0.2,4.9,0.3
	c1.6,0.1,3.1,0.1,4.5,0.1c7,0,13.6-1,19.8-3.1c6.2-2.1,11.6-5.1,16.2-9.1c4.6-4,8.2-9,10.9-15C331.4,339.8,332.7,332.9,332.7,325.1z
	 M306.5,304.4c-2.9-2.9-6.3-5.1-10.4-6.6c-4.1-1.5-8.7-2.3-13.8-2.3c-0.4,0-0.7,0-1.1,0c-0.4,0-0.7,0-1.1,0.1v60.6
	c2,0.3,4.1,0.4,6.3,0.4c3.9,0,7.6-0.6,11.1-1.8c3.5-1.2,6.6-2.9,9.2-5.3c2.6-2.4,4.7-5.3,6.2-8.8c1.5-3.5,2.3-7.6,2.3-12.2
	c0-5.1-0.8-9.6-2.3-13.7C311.5,310.8,309.3,307.3,306.5,304.4z"/>
</svg>
